<?xml version="1.0" encoding="UTF-8"?>
<svg id="Camada_2" data-name="Camada 2" xmlns="http://www.w3.org/2000/svg" viewBox="0 0 355.31 50.96">
  <defs>
    <style>
      .cls-1 {
        fill: #eaebde;
      }

      .cls-2 {
        fill: none;
        stroke: #eaebde;
        stroke-miterlimit: 10;
        stroke-width: 3px;
      }
    </style>
  </defs>
  <g id="Camada_1-2" data-name="Camada 1">
    <g>
      <g>
        <path class="cls-1" d="M85.88,13.96c-4.87,0-8.87,2.73-10.65,6.89,0-1.17.01-2.49.02-4.03,0-1.6-.8-2.61-2.04-2.82,1.61-.68,2.72-2.29,2.72-4.1,0-2.34-2.02-4.22-4.43-4.22s-4.4,1.96-4.4,4.38c0,2.24,1.78,4.07,3.99,4.27,0,0,0,0-.02,0-1.59.67-2.72,1.2-4,1.93,0,0-.01,0-.02.01,0-2.8,0-5.77.02-9.28,0-2.74-1.88-3.74-4.14-2.75-1.22.53-2.93,1.37-3.96,1.92-1.88,1-2.11,3.57.05,4.59,1,.47,1.28.8,1.28,1.94v.32c0,1.21-.6,1.39-1.59,1.18-.85-.18-1.43-.25-2.29-.25-5.35,0-9.5,3.28-10.9,8.35,0-.28,0-.56,0-.88.05-5.07-3.67-7.47-7.33-7.47-2.27,0-4.68.92-6.59,2.29-.49-1.29-1.73-2.29-3.92-2.29-1.04,0-1.93.36-3.08.94-1.45.69-1.83.49-2.93-.37-.64-.55-1.46-.73-2.68-.21-1.33.56-2.57,1.16-3.87,1.88-1.88,1.04-2.19,3.18-.47,4.34,1.18.79,1.65,1.33,1.69,3.23.04,1.84.06,3.11.02,4.74-.07,2.7-.59,3.41-1.81,4.05-2.19,1.21-1.22,4.36,1.35,4.52,2.33.16,5.59.16,8.71,0,3.13-.15,3.69-4.07.61-4.96-1.8-.49-2.06-1.11-2.1-3.64-.03-1.36-.03-2.95,0-4.13.05-2.86,1.36-3.98,3.2-3.04.54.27,1.06.42,1.54.47,0,.1-.01.2-.01.29,0,4.41,6.91,4.42,7.13-.52.02-.43,0-.66.05-.98.08-.81.81-1.23,1.72-1.25,1.43,0,2,.9,2,2.22v.56c0,1-.31,1.68-1.66,2.18-.55.21-1.42.56-3.47,1.35-4.09,1.59-6.06,3.27-6.06,6.46s2.21,5.58,6.3,5.58c1.66,0,2.62-.24,3.93-.89,1.37-.63,2.24-.55,3-.02.89.63,1.83.9,2.97.9,2.21,0,3.88-1.22,4.79-2.58,1.83,1.7,4.15,2.58,6.4,2.58,1.62,0,2.81-.41,4.05-1.04,1.11-.52,1.97-.44,2.76.33.59.59,1.49.71,2.68.35.65-.2,1.35-.45,2.07-.73.4.29.91.48,1.52.51,2.63.11,5.28.11,7.61,0,1.48-.06,2.4-1.04,2.61-2.11,1.98,1.69,4.58,2.68,7.54,2.68,6.63,0,11.62-4.99,11.62-11.85s-4.84-11.85-11.51-11.85ZM38.72,29.87c0,.89-1.09,2.11-2.61,2.11-.82,0-1.17-.36-1.17-.91,0-.77.7-1.44,2.22-1.94,1.23-.41,1.56-.17,1.56.4v.35ZM60.3,28.1c0,2.56-1.51,4.01-3.53,4.01-2.7,0-4.51-2.75-4.51-7.06s1.84-6.2,4.27-6.2c2.24,0,3.76,1.6,3.76,3.59v5.66ZM68.49,23.76c.02,1.81.02,3.68,0,4.51-.02,1.13-.09,1.92-.25,2.5-.89-.47-1.14-1.14-1.14-2.51-.01-2.69-.02-5.12-.03-7.54,1.09.79,1.41,1.24,1.42,3.04ZM86.19,32.8c-2.29,0-4.32-2.64-4.51-7.23-.18-4.38,1.53-6.76,3.75-6.76s4.32,2.6,4.52,7.15c.18,4.38-1.52,6.85-3.76,6.85Z"/>
        <g>
          <path class="cls-1" d="M234.63,14.46c-5.18,0-9.35,3.21-10.74,7.93,0-.23,0-.47,0-.72.05-4.89-3.54-7.21-7.08-7.21-2.86,0-5.93,1.51-7.9,3.53-1.21-1.96-3.87-3.58-7.7-3.58-5.66,0-9.54,3.53-10.86,8.15,0-.28,0-.57,0-.89.05-4.89-3.54-7.21-7.08-7.21-2.5,0-5.17,1.16-7.12,2.8-.17-1.2-1.08-2.29-2.73-2.28-.52,0-1.5,0-1.56,0-.6,0-1.11-.29-1.3-1.17l-.17-1.04c-.49-1.61-2.51-2.19-3.99-.77-1.32,1.27-2.43,2.34-3.71,3.57-.3-.2-.67-.36-1.13-.51-1.15-.37-2.94-.61-4.57-.61-3.79,0-6.53,1.43-7.84,3.69-1.63-2.31-4.4-3.69-7.5-3.69-5.66,0-10.95,4.56-10.95,11.54s4.45,11.33,10.65,11.33c2.15,0,4.95-.57,7.08-2.63.23.58.63,1,1.33,1.33,1.85.87,4.2,1.31,6.28,1.31,4.75,0,7.2-2.11,8.16-4.39.59,2.51,2.64,4.39,5.86,4.39,1.87,0,3.37-.69,4.46-1.55,1.03.97,2.55,1.55,4.54,1.55,1.6,0,2.53-.23,3.79-.86,1.32-.61,2.16-.53,2.9-.02.85.6,1.76.87,2.86.87,2.23,0,3.89-1.28,4.74-2.68,1.78,1.65,4.19,2.68,7.1,2.68s5.22-.99,6.88-2.41c.96,1.48,2.73,2.41,5.26,2.41,1.6,0,2.53-.23,3.79-.86,1.32-.61,2.16-.53,2.9-.02.85.6,1.76.87,2.86.87,2.3,0,4-1.37,4.82-2.81,1.94,1.77,4.54,2.81,7.53,2.81,6.4,0,11.22-4.82,11.22-11.43s-4.67-11.43-11.11-11.43ZM138.68,20.51c.22-.81,1.35-1.37,2.57-1.37,1.13,0,2.04.55,2.13,1.42.05.57-.52.94-1.38.94h-2.21c-.83,0-1.29-.37-1.12-.99ZM156.16,32.63c-1.82,0-2.71-1.26-3.28-3.26-.63-2.22-3.47-2.19-4.43-.35-.66-.06-1.38.17-1.99.8-1.3,1.36-2.52,1.77-3.93,1.77-2.12,0-3.93-1.18-4.35-3.74-.23-1.09.31-1.76,1.69-1.76h7.81c.86,0,1.54-.23,2.04-.62.76.94,1.82,1.75,3.19,2.43,1.03.51,2.06,1,3.35,1.64,1.12.55,1.59,1.24,1.59,1.86,0,.72-.67,1.22-1.7,1.22ZM160.1,23.95c-.99-.51-2.57-1.31-3.68-1.85-1.02-.51-1.36-1.12-1.36-1.68,0-.8.63-1.3,1.67-1.3,1.34,0,1.98.8,2.44,2.58.77,2.96,4.58,2.33,4.79-.66,0-.01,0-.03,0-.04.11.35.13.8.12,1.49,0,1.56-.01,3.37-.02,5.2-.71-1.41-1.99-2.74-3.96-3.75ZM183.8,29.81c0,.85-1.05,2.03-2.52,2.03-.79,0-1.13-.35-1.13-.88,0-.75.68-1.39,2.14-1.87,1.19-.4,1.5-.16,1.5.39v.33ZM183.82,22.3c0,.96-.3,1.62-1.6,2.11-.53.21-1.37.54-3.35,1.31-3.37,1.31-5.24,2.69-5.72,4.97-1.45.44-2.53,0-2.53-1.61,0-2.93.02-4.85.04-7.56,0-.67.35-1.19,1.11-1.17.54,0,1.05,0,1.69,0,.1,0,.21,0,.3,0-.28.64-.44,1.29-.44,1.93,0,4.26,6.67,4.27,6.88-.5.02-.41,0-.64.04-.95.08-.78.78-1.19,1.66-1.21,1.38,0,1.93.86,1.93,2.14v.54ZM217.33,29.81c0,.85-1.05,2.03-2.52,2.03-.79,0-1.13-.35-1.13-.88,0-.75.68-1.39,2.14-1.87,1.19-.4,1.5-.16,1.5.39v.33ZM217.34,22.3c0,.96-.3,1.62-1.6,2.11-.53.21-1.37.54-3.35,1.31-2.47.96-4.14,1.96-5.05,3.32-.6,0-1.22.25-1.78.82-1.08,1.12-2.24,1.75-3.93,1.75-2.69,0-4.77-2.08-4.77-6.92,0-3.96,1.39-5.55,3.28-5.55,1.22,0,1.94.63,2.45,2.01.89,2.43,2.93,3.13,4.59,2.66,1.38,2.65,6.35,2.09,6.53-2.02.02-.41,0-.64.04-.95.08-.78.78-1.19,1.66-1.21,1.38,0,1.93.86,1.93,2.14v.54ZM224.1,30.12c-.07-.13-.12-.28-.15-.46.05.15.1.31.15.46ZM234.93,32.63c-2.21,0-4.17-2.55-4.35-6.98-.17-4.23,1.48-6.53,3.62-6.53s4.17,2.51,4.36,6.9c.17,4.22-1.47,6.61-3.63,6.61Z"/>
          <path class="cls-1" d="M331.24,15.4c-4.7,0-8.56,2.64-10.27,6.65,0-1.13.01-2.41.02-3.89,0-1.55-.77-2.52-1.97-2.72,1.56-.66,2.63-2.21,2.63-3.96,0-2.26-1.94-4.07-4.28-4.07s-4.25,1.89-4.25,4.22c0,2.16,1.72,3.93,3.85,4.12,0,0,0,0-.02,0-1.02.43-1.85.81-2.66,1.22-.62-.38-1.46-.54-2.54-.32-2.75.56-2.71-1.27-8.64-1.27-6.27,0-9.4,3.76-9.4,8.15,0,1.62.38,2.94,1.05,4.1.73,1.24.76,1.93.04,2.93-.17.24-.32.49-.44.75-.6-.44-.74-1.13-.74-2.82v-10.29c0-2.03-1.22-2.93-3.4-2.75-1.29.11-2.29.22-3.87.44-2.45.36-2.91,3.45-1.08,4.5,1.47.82,1.78,1.29,1.8,3.18.02,2.41,0,4.25,0,5.86,0,1.26-.58,2.41-1.58,3.01-1.96,1.19-4.11.25-4.11-2.47v-11.58c0-2.21-1.2-3.12-3.4-2.94-1.24.11-2.55.26-3.87.44-1.16.17-1.86.91-2.11,1.75-1.73-1.49-3.87-2.25-5.9-2.25-1.2,0-2.27.14-3.27.59-1.22.5-1.95,0-1.94-1.19,0-5.46,0-4.04.02-6.29,0-2.45-1.86-3.28-4.11-2.38-1.26.51-2.79,1.28-3.54,1.68-1.75.91-2.15,2.91-.77,4.04,1.4,1.12,1.85,1.82,1.86,3.49.07,7.94.07,12.94,0,20.22-.02,2.28,1.93,3.24,3.8,2.31.87-.44,1.67-.52,2.75-.22,1.27.37,2.51.6,3.79.6,4.52,0,8.49-2.56,10.14-7.04,0,.07,0,.14,0,.22-.07,5.57,4.96,8.13,10.37,6.08,1.53-.56,2.02-.46,2.97.32.57.49,1.71.47,2.86.07,1.32-.45,2.31-.8,3.42-1.26,0,.42-.16.78-.54,1.21-1.02,1.08-1.42,2.35-1.42,3.68,0,4.29,4.29,6.31,9.42,6.31,7.4,0,12.95-4.13,12.95-9.34,0-.26-.02-.52-.05-.79,2.27.08,4.53.07,6.55-.02,1.43-.06,2.31-1,2.52-2.03,1.91,1.63,4.42,2.59,7.28,2.59,6.4,0,11.22-4.82,11.22-11.43s-4.67-11.43-11.11-11.43ZM264.64,33.54c-2.23,0-3.72-1.3-3.77-3.71-.04-1.85,0-3.66.03-5.4.04-2.42,1.24-3.69,3.45-3.69,2.75,0,4.29,2.58,4.29,6.9s-1.61,5.91-4,5.91ZM307.48,30.99c.39-.18.66-.33.93-.5.35-.21.68-.43,1.4-1.09,1.51-1.4,2.39-2.95,2.6-5.36.08-.91.16-1.25,1.1-1.78.71.59.93,1.13.94,2.6.02,1.75.02,3.55,0,4.35-.04,2.71-.37,3.37-1.78,4.11-.16.09-.3.19-.43.31-1.01-.63-2.36-1.06-4.14-1.14l-.4-.02c-.84-.04-1.16-1.04-.22-1.48ZM303.03,19.79c1.46,0,2.38,1.51,2.38,3.88,0,2.19-.77,3.74-2.17,3.75-1.48.02-2.37-1.54-2.37-3.91,0-2.15.74-3.71,2.16-3.73ZM303.62,42.56c-3.52,0-4.93-.7-4.93-1.92,0-1.14,1.07-1.48,2.93-1.48h3.13c2.53,0,3.59.48,3.59,1.54,0,1.16-1.39,1.85-4.73,1.85ZM331.54,33.58c-2.21,0-4.17-2.55-4.35-6.98-.17-4.23,1.48-6.53,3.62-6.53s4.17,2.51,4.36,6.9c.17,4.22-1.47,6.61-3.63,6.61Z"/>
        </g>
        <path class="cls-2" d="M329.95,1.5h-187.35c-7.18,0-13.61,3.17-17.98,8.19-2.71,3.11-6.61,4.92-10.74,4.92h0c-4.1,0-7.98-1.79-10.69-4.87-4.38-4.99-10.81-8.13-17.97-8.13H25.43c-13.21,0-23.93,10.71-23.93,23.93h0c0,13.21,10.71,23.93,23.93,23.93h59.8c7.57,0,14.31-3.52,18.7-9,2.33-2.92,5.78-4.71,9.51-4.71h1.09c3.71,0,7.15,1.78,9.47,4.68,4.37,5.44,11.08,8.93,18.61,8.93h187.35c13.18,0,23.86-10.68,23.86-23.86v-.14c0-13.18-10.68-23.86-23.86-23.86Z"/>
      </g>
      <path class="cls-1" d="M222.13,8.59c2.06-.13,2.92,1.72,2.54,3.52-.78,3.69-4.51,4.86-7.81,3.67-.98-.35-2.32-1.29-3.33-1.19-.74.07-1.02.66-1.44,1.14-1.62,1.83-4.5.58-4.38-1.87.19-3.98,4.21-5.74,7.7-4.54,1.41.48,3.4,1.98,4.68.55.66-.74.92-1.21,2.05-1.28Z"/>
      <path class="cls-1" d="M199.6,34.9c.84-.03,1.64.37,2.16,1.02,1.78,2.23.34,6.17-2.29,7.03-.94.31-1.97,0-2.25-1.03s.54-1.4.49-2.29c-.03-.56-.45-1.13-.56-1.69-.3-1.6.85-2.98,2.46-3.04Z"/>
    </g>
  </g>
</svg>